<svg width="192" height="197" viewBox="0 0 192 197" fill="none" xmlns="http://www.w3.org/2000/svg">
<g clip-path="url(#clip0_3931_1199)">
<path d="M88.648 174.147C87.688 173.187 86.881 172.247 85.942 171.466C83.242 169.229 81.966 166.066 80.354 163.119C79.63 161.797 79.837 160.311 79.868 158.88C79.874 158.632 80.217 158.391 80.417 158.131L81.323 159.922V157.272C81.8541 157.078 82.3581 156.816 82.823 156.494C83.0204 156.331 83.2578 156.223 83.5107 156.182C83.7637 156.141 84.023 156.168 84.262 156.26C84.7822 156.477 85.2675 156.77 85.702 157.129C85.52 158.457 85.852 159.805 86.63 160.896C87.237 160.732 87.953 161.163 88.561 160.54C88.6712 160.475 88.7959 160.438 88.9239 160.432C89.0519 160.426 89.1793 160.452 89.295 160.507C90.783 161.407 92.61 161.878 93.363 163.716C93.498 164.048 93.648 164.476 93.92 164.623C94.33 164.845 93.962 165.538 94.666 165.565C95.245 165.587 94.875 166.178 94.979 166.499C95.132 166.89 95.2569 167.291 95.353 167.699C95.3898 168.084 95.3944 168.471 95.367 168.856C93.9383 170.146 92.8457 171.765 92.184 173.572L88.649 174.148" fill="#2FACB2"/>
<path d="M40.202 99.0442C39.375 99.6062 38.578 100.17 37.747 100.677C37.667 100.726 37.378 100.434 37.066 100.216C36.9151 100.533 36.7406 100.838 36.544 101.128C36.2874 101.419 36.016 101.696 35.731 101.958C35.185 102.521 34.658 103.148 33.851 102.292C33.789 102.227 33.601 102.292 33.474 102.278C32.567 102.178 31.702 102.406 30.79 101.678C29.9645 101.161 29.1756 100.588 28.429 99.9632C27.7383 99.3256 27.1422 98.5925 26.659 97.7862C25.826 96.5608 25.4278 95.0916 25.528 93.6132C25.6666 93.169 25.858 92.7429 26.098 92.3442L27.298 93.3312C27.614 92.2832 27.549 91.0652 28.52 90.1412L29.732 91.0442V89.6322C30.9423 89.2959 32.1877 89.1016 33.443 89.0532C34.1211 89.0652 34.7723 89.3212 35.277 89.7742C35.9452 90.2724 36.5536 90.8462 37.09 91.4842C37.53 92.1462 38.131 92.6992 38.59 93.3842C39.2097 94.5462 39.7335 95.7569 40.156 97.0042C40.305 97.6746 40.3206 98.3678 40.202 99.0442Z" fill="#2FACB2"/>
<path d="M-4.429 157.131L-7.086 154.474C-7.12446 153.754 -7.1131 153.032 -7.052 152.313C-7.014 152.036 -6.613 151.755 -6.315 151.592C-6.202 151.529 -5.915 151.792 -5.699 151.909C-5.417 151.351 -5.252 150.596 -4.299 150.78C-4.11591 150.832 -3.92015 150.813 -3.75 150.728C-3.55316 150.504 -3.30474 150.332 -3.02628 150.226C-2.74782 150.12 -2.44773 150.084 -2.152 150.12C-1.02539 150.291 0.0487738 150.712 0.991996 151.351C2.75967 152.744 4.16596 154.543 5.092 156.594C5.61786 157.866 6.01973 159.187 6.292 160.536C6.35894 160.883 6.3265 161.242 6.19842 161.572C6.07034 161.901 5.85182 162.188 5.568 162.399C4.46799 163.171 3.405 164.005 2.279 164.739C1.87247 165.006 1.39299 165.14 0.906996 165.122C-0.441523 165.108 -1.74338 164.626 -2.7761 163.759C-3.80882 162.892 -4.5083 161.693 -4.755 160.367C-4.9549 159.932 -5.07449 159.464 -5.108 158.986C-4.94949 158.345 -4.72148 157.723 -4.428 157.131" fill="#2FACB2"/>
<path d="M118.185 136.769C118.236 136.411 118.285 136.053 118.344 135.658C118.485 135.758 118.61 135.801 118.644 135.88C119.216 137.066 119.688 138.299 120.053 139.564C120.237 140.382 120.471 141.164 119.679 141.803C119.14 142.237 119.687 143.484 118.474 143.414C117.902 144.333 116.986 144.241 116.109 144.178C115.955 144.773 115.762 145.357 115.53 145.926C115.239 146.526 114.309 146.698 113.312 146.413C113.084 146.348 112.864 146.127 112.656 146.145C111.041 146.286 111.044 146.298 110.364 145.024C109.991 144.408 109.653 143.772 109.352 143.118C109.215 142.739 108.997 142.394 108.715 142.106C108.433 141.819 108.091 141.595 107.715 141.451C107.135 141.207 106.627 140.82 106.239 140.324C105.852 139.829 105.597 139.243 105.499 138.622C105.427 138.046 105.516 137.461 105.755 136.932C105.994 136.402 106.374 135.949 106.854 135.622L108.561 137.853C108.561 136.915 108.551 136.284 108.561 135.653C108.571 135.022 108.642 135.153 109.634 134.707C110.344 134.388 111.371 134.775 111.779 133.792L113.879 133.712C115.172 133.661 116.319 133.802 116.921 135.239C117.267 135.807 117.693 136.322 118.186 136.769" fill="#2FACB2"/>
<path d="M123.164 202.915C120.953 202.004 120.002 200.315 119.057 198.665C118.219 197.219 117.483 195.715 116.857 194.165C116.237 192.617 115.164 191.152 115.643 189.205C117.043 190.18 116.926 192.043 118.269 193.289C118.023 191.323 117 189.796 116.49 187.723L117.765 188.423C117.823 188.08 117.889 187.723 117.951 187.373L119.795 187.023C119.976 187.312 120.213 187.739 120.495 188.134C121.595 189.673 121.595 189.666 123.595 190.375C123.816 190.464 124.027 190.578 124.223 190.713C125.817 191.591 127.134 192.898 128.023 194.486C128.421 195.247 128.667 196.079 128.747 196.934C128.773 197.113 128.857 197.279 128.987 197.406C129.049 197.459 129.095 197.527 129.123 197.604C129.15 197.68 129.157 197.763 129.142 197.843C129.128 197.923 129.093 197.998 129.041 198.06C128.989 198.123 128.922 198.17 128.846 198.199C127.974 198.691 127.597 199.658 126.823 200.237C126.682 200.359 126.569 200.51 126.491 200.68C126.414 200.849 126.374 201.033 126.374 201.22C126.234 201.553 126.001 201.839 125.704 202.044C125.407 202.249 125.057 202.365 124.696 202.378C124.382 202.305 124.179 201.729 123.752 202.154C123.538 202.394 123.339 202.649 123.158 202.915" fill="#2FACB2"/>
<path d="M60.326 157.698L59.142 157.898L59.618 158.789L56.749 161.659C56.57 161.642 56.3899 161.642 56.211 161.659C54.035 162.059 52.585 160.827 51.377 159.337C50.42 158.164 49.6184 156.872 48.992 155.494C48.4883 154.632 48.3222 153.613 48.526 152.636L50.365 156.667L50.679 156.567C50.6539 156.317 50.6037 156.071 50.529 155.831C50.136 154.894 49.688 153.981 49.317 153.036C49.153 152.618 48.8 152.098 49.698 151.904C49.975 151.844 50.137 151.247 50.348 150.894C50.533 150.584 50.712 150.27 50.859 150.02C51.766 149.937 51.775 150.73 52.34 151.057L51.904 149.402L52.969 148.557C53.214 148.8 53.538 149.188 53.839 148.473C54.166 147.701 54.649 147.4 55.426 147.907C55.497 147.953 55.644 147.989 55.691 147.95C56.597 147.204 57.13 147.95 57.549 148.518C58.4388 149.939 59.1349 151.473 59.619 153.078C59.76 153.444 60.067 154.302 59.035 154.344C58.977 154.344 58.935 154.667 58.881 154.844C59.096 154.896 59.426 155.062 59.508 154.98C59.5647 154.894 59.649 154.829 59.7471 154.797C59.8451 154.765 59.9512 154.767 60.0479 154.803C60.1446 154.839 60.2262 154.907 60.2795 154.995C60.3327 155.084 60.3544 155.188 60.341 155.29C59.993 156.107 60.799 156.897 60.324 157.703" fill="#2FACB2"/>
<path d="M53.303 116.293L54.103 117.093C54.166 116.544 54.219 116.093 54.277 115.598C55.077 115.431 55.898 115.22 56.734 115.098C57.2451 115.022 57.7648 115.022 58.276 115.098C58.66 115.158 58.359 115.874 59.076 115.936C59.539 115.977 59.895 116.763 60.224 117.311C60.492 117.756 60.091 118.718 61.107 118.661C61.1416 119.29 61.177 119.92 61.213 120.551C61.2185 120.612 61.2272 120.674 61.239 120.734L64.122 123.617C64.4377 123.596 64.7547 123.599 65.07 123.626C65.552 123.704 66.07 124.181 65.823 124.477C65.274 125.135 66.258 125.59 65.868 126.127C64.8553 126.539 63.7427 126.638 62.673 126.413C62.979 127.074 63.245 127.65 63.579 128.375C63.384 128.562 63.127 129.018 62.874 129.017C61.274 129.005 59.593 129.41 58.168 128.276C57.7512 128.01 57.3646 127.7 57.015 127.35C56.33 126.492 55.715 125.576 55.091 124.671C54.783 124.225 54.52 123.747 54.224 123.291C53.769 122.591 53.905 121.575 53.065 121.071C53.0648 120.276 52.8345 119.498 52.402 118.831C52.2882 118.606 52.2213 118.361 52.2052 118.11C52.1891 117.859 52.2242 117.607 52.3084 117.369C52.3925 117.132 52.524 116.914 52.6948 116.729C52.8656 116.544 53.0721 116.396 53.302 116.293" fill="#2FACB2"/>
<path d="M-6.57904 87.5309H-4.78904C-4.09704 87.5309 -3.34804 87.4159 -3.18904 88.4169C-3.15043 88.4913 -3.09338 88.5545 -3.02335 88.6006C-2.95331 88.6466 -2.87264 88.674 -2.78904 88.6799C-1.96904 88.5579 -1.75704 89.3329 -1.25504 89.6739C0.103957 90.5979 0.303957 92.1219 0.646957 93.5299C0.840958 94.3299 0.581957 94.9099 -0.333043 95.4569C-1.35904 96.0709 -2.64304 96.4569 -3.34804 97.5679C-3.97004 97.5799 -4.47904 98.5529 -5.20504 97.7739C-5.35206 97.6641 -5.53416 97.6118 -5.71704 97.6269C-8.16504 97.6739 -9.69604 96.2679 -10.978 94.3929C-11.7407 93.5257 -12.3245 92.5164 -12.696 91.4229C-12.7979 90.9407 -12.8647 90.4518 -12.896 89.9599C-12.907 89.7989 -12.812 89.5209 -12.696 89.4799C-11.715 89.1279 -10.996 88.2879 -10.043 87.9449C-8.93521 87.5439 -7.75018 87.4023 -6.57904 87.5309Z" fill="#2FACB2"/>
<path d="M-9.69004 181.65L-8.79004 183.063C-8.69904 182.387 -8.66404 182.156 -8.63804 181.924C-8.55404 181.155 -8.55604 181.156 -7.58404 181.057C-7.46204 181.044 -7.27504 181.057 -7.23204 180.992C-7.05402 180.682 -6.77331 180.444 -6.43842 180.319C-6.10354 180.194 -5.73554 180.19 -5.39804 180.308C-4.58265 180.508 -3.81488 180.867 -3.13904 181.365C-0.87162 183.441 0.821951 186.066 1.77796 188.988C1.88033 189.539 1.88912 190.104 1.80396 190.658L1.06296 190.575C1.11196 191.275 0.954957 191.787 0.140957 191.951C-0.00508213 192.004 -0.136013 192.092 -0.240541 192.207C-0.34507 192.322 -0.42006 192.461 -0.459044 192.611C-0.541043 193.449 -1.40204 193.041 -1.70204 193.477C-2.18204 192.714 -3.00204 193.638 -3.54604 193.092C-4.06304 192.57 -4.77004 192.167 -5.11104 191.554C-5.89934 190.218 -6.54138 188.801 -7.02604 187.328C-7.09885 186.999 -7.23711 186.687 -7.4326 186.413C-7.62809 186.138 -7.87683 185.905 -8.16404 185.728C-9.09434 185.223 -9.84096 184.436 -10.297 183.481C-10.68 182.649 -10.697 182.657 -9.69004 181.65Z" fill="#2FACB2"/>
<path d="M26.6749 159.082C26.6496 158.849 26.6549 158.614 26.6909 158.382C26.7329 158.221 27.0079 158.112 27.0329 157.957C27.0579 157.802 26.8639 157.597 26.8639 157.41C26.8639 157.247 27.0919 157.047 27.0469 156.927C26.9476 156.698 26.7913 156.498 26.5929 156.347C26.4073 156.256 26.2074 156.197 26.0019 156.173C26.1229 156.593 26.2199 156.932 26.3189 157.273C25.6289 156.855 24.8639 156.522 25.2029 155.515L26.1089 155.904C26.2199 154.697 25.0969 155.323 24.6639 154.75C25.2969 154.825 25.7189 154.389 26.3559 154.473C26.6559 154.512 27.0349 153.885 27.4879 153.456L29.6439 155.216L29.8519 153.948L32.7039 153.397C33.2039 154.03 33.5879 154.608 34.0599 155.105C34.4699 155.535 35.0329 155.821 35.4279 156.262C36.4393 157.543 37.1495 159.036 37.5059 160.629C37.6699 161.185 37.8509 162.064 36.7889 162.213C36.7889 163.233 35.7179 163.386 35.2329 164.032C34.8854 164.426 34.4132 164.688 33.8954 164.776C33.3776 164.863 32.8454 164.77 32.3879 164.512C30.794 163.738 29.4208 162.576 28.3949 161.131C27.8389 160.469 27.2149 159.844 26.6749 159.083" fill="#2FACB2"/>
<path d="M58.652 184.245L59.614 184.572C59.684 182.94 57.998 182.482 57.763 180.98C58.0498 181.074 58.3252 181.2 58.584 181.355C58.9339 181.665 59.2677 181.992 59.584 182.335C59.5442 181.747 59.296 181.191 58.884 180.769C59.91 179.531 59.91 179.531 61.11 179.531C61.6918 180.376 62.3916 181.133 63.188 181.779C64.125 182.352 64.401 183.329 65.088 184.03C65.7202 184.763 66.2393 185.585 66.628 186.471C66.9005 186.944 67.0278 187.487 66.994 188.031C66.894 188.655 66.628 189.572 66.187 189.749C65.461 190.041 65.624 190.554 65.395 190.996C65.267 191.324 65.061 191.615 64.7949 191.845C64.5287 192.074 64.2106 192.235 63.868 192.314C63.409 192.389 62.863 192.739 62.526 192.588C61.6811 192.243 60.9104 191.739 60.256 191.103C59.1242 189.868 58.0734 188.562 57.11 187.191C56.869 186.851 56.983 186.254 56.91 185.581L57.64 186.169C57.498 185.179 58.363 184.84 58.652 184.244" fill="#2FACB2"/>
<path d="M35.119 125.635C35.786 125.679 36.247 125.335 36.858 125.774L36.078 126.043C36.307 126.821 36.562 127.593 36.749 128.382C36.797 128.582 36.691 128.982 36.549 129.042C35.776 129.37 35.536 130.209 34.93 130.67C34.6213 130.858 34.27 130.964 33.909 130.979C33.733 130.998 33.526 130.733 33.35 130.751C33.1191 130.824 32.9036 130.939 32.714 131.089C32.381 129.912 32.398 129.865 31.087 129.418C30.302 129.15 30.139 128.379 29.587 127.894L29.208 128.703C29.008 128.496 28.676 128.31 28.676 128.125C28.686 125.813 28.684 125.761 27.629 124.376C27.034 125.421 28.174 126.026 28.236 127.048C27.954 127.004 27.536 127.037 27.483 126.916C26.989 125.711 26.234 124.57 27.009 123.127C27.249 122.678 27.293 122.443 27.833 122.433C28.1903 122.392 28.5307 122.258 28.821 122.045C29.589 121.559 30.33 121.03 31.152 120.47L31.476 120.947C32.124 121.399 32.8 120.182 32.908 121.447C32.939 121.807 33.744 120.947 33.744 121.891C33.744 122.255 34.413 122.62 34.75 122.957L34.397 123.87L34.684 124.07L35.234 123.025C35.58 123.614 35.782 123.955 36.046 124.402L35.119 125.635Z" fill="#2FACB2"/>
<path d="M19.875 179.824L21.48 180.294C21.6462 180.015 21.7154 179.689 21.6769 179.367C21.6383 179.045 21.4942 178.745 21.267 178.513C21.947 177.895 22.4 178.827 23.067 178.726C23.128 178.386 23.195 178.031 23.262 177.684C23.784 177.125 24.255 178.156 24.886 177.67C25.517 177.184 25.694 178.247 26.243 178.37C26.5755 178.502 26.86 178.732 27.059 179.03C27.788 179.924 27.901 181.188 28.883 181.968C29.118 182.154 28.993 182.795 29.045 183.368C27.957 182.834 27.891 184.56 26.845 184.151C26.523 184.673 26.827 185.618 25.645 185.731L25.046 184.713L24.578 185.691C23.918 185.848 23.615 185.278 23.398 184.916C22.7021 183.737 21.717 182.756 20.536 182.064C20.3389 181.967 20.1641 181.831 20.0225 181.663C19.881 181.495 19.7758 181.3 19.7137 181.089C19.6515 180.879 19.6338 180.657 19.6615 180.44C19.6893 180.222 19.762 180.012 19.875 179.824Z" fill="#2FACB2"/>
<path d="M10.435 128.272L7.972 130.203H6.342C5.707 129.285 5.501 128.078 4.565 127.32C4.468 126.044 3.584 125.25 2.821 124.359C2.572 124.075 2.621 123.536 2.521 123.008C2.801 122.93 3.079 122.936 3.221 122.8C4.713 121.407 6.121 122.19 7.303 123.144C8.31314 123.995 9.18548 124.997 9.889 126.114C10.1942 126.797 10.3789 127.527 10.435 128.273" fill="#2FACB2"/>
</g>
<defs>
<clipPath id="clip0_3931_1199">
<rect width="192" height="196" fill="white" transform="translate(0 0.765625)"/>
</clipPath>
</defs>
</svg>
