<svg width="40" height="52" viewBox="0 0 40 52" fill="none" xmlns="http://www.w3.org/2000/svg">
<g clip-path="url(#clip0_3931_1326)">
<path d="M6.74533 52.4662C3.68551 48.6213 2.15108 44.3341 2.14206 39.6046C2.14206 34.5953 3.90214 30.3261 7.4223 26.7972C10.8881 23.3584 15.0761 21.5984 19.9865 21.5172C24.8875 21.5713 29.0846 23.3313 32.5777 26.7972C36.0979 30.3173 37.858 34.5864 37.858 39.6046C37.858 44.3431 36.3145 48.6303 33.2276 52.4662L26.3498 60.6977C26.3498 60.6977 25.2938 61.0226 24.7251 60.4269C24.4814 60.1833 14.8958 47.8903 14.8958 47.8903" stroke="#35B8BE" stroke-width="50" stroke-miterlimit="3" stroke-linecap="square"/>
<path d="M13.7585 45.5093C13.269 45.0016 12.8989 44.3911 12.6754 43.7222C12.4525 43.0513 12.3786 42.3399 12.4588 41.6375C12.54 40.1482 13.1357 38.9301 14.273 37.955C15.3832 37.0073 16.6558 36.6283 18.091 36.7637C18.9575 36.8178 19.7157 37.0344 20.3926 37.4948C20.8838 37.7687 21.3236 38.126 21.6923 38.5508L27.433 45.1846" stroke="white" stroke-width="50" stroke-miterlimit="3" stroke-linecap="round" stroke-linejoin="round"/>
<path d="M25.4833 57.7808L13.7585 42.5093M20.0133 63.6023L6.74533 48.4662" stroke="#35B8BE" stroke-width="50" stroke-miterlimit="3" stroke-linecap="round"/>
</g>
<defs>
<clipPath id="clip0_3931_1326">
<rect width="40" height="51.25" fill="white" transform="translate(0 0.375)"/>
</clipPath>
</defs>
</svg>
