<svg width="197" height="61" viewBox="0 0 197 61" fill="none" xmlns="http://www.w3.org/2000/svg">
<g clip-path="url(#clip0_3931_1340)">
<g opacity="0.2">
<path fill-rule="evenodd" clip-rule="evenodd" d="M-2.569 -56.5479C3.308 -52.8019 4.338 -44.9661 6.793 -38.4561C9.077 -32.4001 11.393 -26.5011 11.199 -20.0431C10.975 -12.4351 11.71 -3.05406 5.61801 1.49894C-0.517992 6.08694 -9.18197 0.626018 -16.857 0.933018C-23.801 1.20902 -31.305 7.10508 -37.064 3.20108C-42.884 -0.746916 -40.105 -10.0211 -42.654 -16.5631C-45.005 -22.5961 -51.944 -26.9821 -51.331 -33.4161C-50.709 -39.9461 -44.589 -44.3353 -39.604 -48.5973C-34.738 -52.7553 -29.391 -56.179 -23.122 -57.524C-16.255 -58.999 -8.503 -60.3289 -2.569 -56.5479Z" stroke="white"/>
<path fill-rule="evenodd" clip-rule="evenodd" d="M1.05813 -64.1131C8.36613 -59.4551 9.64912 -49.7132 12.7041 -41.6272C15.5471 -34.0972 18.4241 -26.768 18.1911 -18.739C17.9161 -9.28803 18.8341 2.36908 11.2621 8.02708C3.63511 13.7271 -7.13787 6.93481 -16.6789 7.30882C-25.3119 7.65082 -34.6379 14.9749 -41.7999 10.1199C-49.0379 5.21285 -45.5869 -6.31216 -48.7589 -14.4422C-51.6839 -21.9422 -60.3129 -27.395 -59.5589 -35.388C-58.7889 -43.501 -51.1819 -48.9548 -44.9869 -54.2478C-38.9399 -59.4128 -32.2939 -63.6662 -24.4999 -65.3352C-15.9589 -67.1662 -6.32187 -68.8171 1.05813 -64.1131Z" stroke="white"/>
<path fill-rule="evenodd" clip-rule="evenodd" d="M4.43002 -71.1342C13.067 -65.6342 14.587 -54.1263 18.199 -44.5673C21.56 -35.6733 24.962 -27.0132 24.688 -17.5312C24.366 -6.36617 25.454 7.40897 16.508 14.088C7.49703 20.818 -5.236 12.7929 -16.509 13.2359C-26.709 13.6359 -37.728 22.284 -46.192 16.545C-54.746 10.745 -50.671 -2.86514 -54.422 -12.4701C-57.88 -21.3291 -68.078 -27.7762 -67.184 -37.2182C-66.277 -46.8052 -57.289 -53.246 -49.97 -59.495C-42.826 -65.595 -34.97 -70.6173 -25.765 -72.5883C-15.683 -74.7443 -4.29598 -76.6912 4.43002 -71.1342Z" stroke="white"/>
<path fill-rule="evenodd" clip-rule="evenodd" d="M7.92202 -78.427C17.938 -72.045 19.703 -58.7058 23.894 -47.6268C27.794 -37.3158 31.739 -27.2736 31.424 -16.2786C31.055 -3.33161 32.324 12.6371 21.946 20.3801C11.498 28.1801 -3.26999 18.8731 -16.343 19.3801C-28.173 19.8401 -40.948 29.8681 -50.764 23.2121C-60.684 16.4871 -55.964 0.70605 -60.313 -10.431C-64.325 -20.702 -76.153 -28.1787 -75.113 -39.1307C-74.063 -50.2427 -63.641 -57.7109 -55.155 -64.9549C-46.871 -72.0249 -37.767 -77.8467 -27.088 -80.1287C-15.397 -82.6167 -2.19298 -84.874 7.92202 -78.427Z" stroke="white"/>
<path fill-rule="evenodd" clip-rule="evenodd" d="M12.196 -87.3416C23.896 -79.8826 25.963 -64.3017 30.86 -51.3567C35.418 -39.3107 40.03 -27.582 39.66 -14.74C39.23 0.38098 40.71 19.0343 28.592 28.0793C16.392 37.1863 -0.865977 26.313 -16.138 26.906C-29.959 27.442 -44.882 39.1502 -56.351 31.3762C-67.942 23.5192 -62.428 5.08639 -67.513 -7.92361C-72.202 -19.9236 -86.021 -28.6546 -84.813 -41.4446C-83.588 -54.4236 -71.413 -63.1448 -61.502 -71.6038C-51.826 -79.8618 -41.191 -86.658 -28.715 -89.324C-15.047 -92.24 0.379037 -94.8716 12.196 -87.3416Z" stroke="white"/>
<path fill-rule="evenodd" clip-rule="evenodd" d="M16.859 -97.0646C30.402 -88.4366 32.793 -70.4079 38.459 -55.4299C43.734 -41.4919 49.073 -27.9197 48.652 -13.0627C48.152 4.43232 49.871 26.012 35.852 36.472C21.732 47.008 1.76502 34.4252 -15.907 35.1112C-31.899 35.7282 -49.165 49.2742 -62.437 40.2772C-75.85 31.1862 -69.473 9.86095 -75.359 -5.19305C-80.787 -19.0741 -96.778 -29.1818 -95.384 -43.9758C-93.968 -58.9948 -79.884 -69.0759 -68.415 -78.8669C-57.215 -88.4189 -44.915 -96.281 -30.479 -99.361C-14.666 -102.737 3.18301 -105.78 16.859 -97.0646Z" stroke="white"/>
<path fill-rule="evenodd" clip-rule="evenodd" d="M21.3921 -106.521C36.7241 -96.7511 39.4321 -76.3452 45.8511 -59.3912C51.8251 -43.6152 57.8701 -28.2521 57.3951 -11.4341C56.8351 8.36586 58.7781 32.7932 42.9111 44.6332C26.9271 56.5562 4.32311 42.3099 -15.6819 43.0829C-33.7819 43.7829 -53.3289 59.1112 -68.3539 48.9272C-83.5389 38.6342 -76.3219 14.4969 -82.9869 -2.54205C-89.1329 -18.2531 -107.236 -29.696 -105.66 -46.442C-104.06 -63.442 -88.1169 -74.8527 -75.1349 -85.9297C-62.4629 -96.7417 -48.5349 -105.639 -32.1929 -109.124C-14.2949 -112.942 5.91008 -116.386 21.3921 -106.521Z" stroke="white"/>
<path fill-rule="evenodd" clip-rule="evenodd" d="M25.537 -115.166C42.505 -104.356 45.503 -81.7758 52.608 -63.0178C59.219 -45.5598 65.908 -28.5619 65.385 -9.95188C64.767 11.9581 66.919 38.9892 49.361 52.0882C31.673 65.2822 6.661 49.5174 -15.48 50.3714C-35.513 51.1414 -57.139 68.1043 -73.767 56.8323C-90.567 45.4403 -82.587 18.7321 -89.967 -0.11985C-96.767 -17.5079 -116.804 -30.1699 -115.06 -48.6999C-113.29 -67.5089 -95.649 -80.1368 -81.283 -92.3928C-67.261 -104.355 -51.848 -114.193 -33.765 -118.053C-13.956 -122.274 8.4 -126.082 25.537 -115.166Z" stroke="white"/>
<path fill-rule="evenodd" clip-rule="evenodd" d="M29.9411 -124.349C48.6471 -112.43 51.9531 -87.5429 59.7871 -66.8619C67.0771 -47.6159 74.4531 -28.8789 73.8751 -8.36189C73.1961 15.7861 75.5751 45.582 56.2141 60.02C36.7141 74.562 9.14108 57.1841 -15.2629 58.1201C-37.3469 58.9711 -61.1849 77.6652 -79.5169 65.2392C-98.0429 52.6812 -89.2429 23.2389 -97.3759 2.46088C-104.876 -16.7041 -126.962 -30.6629 -125.041 -51.0889C-123.091 -71.8229 -103.641 -85.741 -87.8089 -99.251C-72.3519 -112.437 -55.3619 -123.286 -35.4279 -127.534C-13.5939 -132.187 11.0531 -136.385 29.9411 -124.349Z" stroke="white"/>
<path fill-rule="evenodd" clip-rule="evenodd" d="M34.731 -134.343C55.331 -121.217 58.971 -93.8178 67.597 -71.0428C75.624 -49.8558 83.747 -29.2249 83.113 -6.64288C82.366 19.9461 84.9821 52.7512 63.6711 68.6462C42.2051 84.6562 11.84 65.5224 -15.029 66.5534C-39.345 67.4864 -65.592 88.0694 -85.776 74.3864C-106.176 60.5604 -96.487 28.1503 -105.443 5.2663C-113.702 -15.8337 -138.021 -31.2076 -135.907 -53.6946C-133.761 -76.5196 -112.35 -91.8436 -94.915 -106.716C-77.897 -121.233 -59.191 -133.175 -37.242 -137.853C-13.204 -142.976 13.931 -147.599 34.731 -134.343Z" stroke="white"/>
</g>
</g>
<defs>
<clipPath id="clip0_3931_1340">
<rect width="197" height="60" fill="white" transform="translate(0 0.5)"/>
</clipPath>
</defs>
</svg>
