<svg width="192" height="197" viewBox="0 0 192 197" fill="none" xmlns="http://www.w3.org/2000/svg">
<g clip-path="url(#clip0_3931_1249)">
<path d="M110.49 126.157C109.616 127.142 109.616 127.142 110.644 128.073C110.703 128.917 109.913 129.717 110.439 130.612C109.993 131.329 109.586 132.069 109.219 132.83C108.694 134.078 107.511 134.479 106.467 134.984C105.761 135.327 105.046 135.693 104.302 135.98C103.431 136.316 102.609 136.776 101.739 137.114C100.951 137.421 100.129 137.644 99.3178 137.886C99.097 137.98 98.8539 138.009 98.617 137.97C98.3809 137.882 98.1271 137.853 97.8772 137.884C97.6272 137.915 97.3885 138.006 97.1814 138.15C96.2363 138.689 95.1564 138.338 94.155 138.346C93.1893 138.265 92.2443 138.021 91.3604 137.623C91.0137 137.499 90.2697 137.25 91.0364 136.619C91.0907 136.575 90.873 136.224 90.8134 136.006C90.7538 135.788 90.621 135.38 90.7007 135.326C91.644 134.697 91.181 134.357 90.5682 133.789C89.6646 132.953 89.8325 132.636 90.497 131.22C90.902 130.358 91.1901 129.407 92.1148 129.086C94.6241 128.224 97.1248 127.323 99.8934 127.849C100.457 127.997 101.044 128.031 101.62 127.949C102.197 127.868 102.751 127.672 103.251 127.375C104.135 126.783 105.238 126.528 105.893 125.572C106.092 125.284 106.534 125.152 106.88 124.98C107.594 124.607 108.421 124.516 109.198 124.724C110.071 124.942 110.079 125.685 110.488 126.156" fill="#E5F1F3"/>
<path d="M136.172 95.9318C136.546 96.3986 136.862 96.7681 137.148 97.1606C137.245 97.3181 137.313 97.492 137.347 97.6737C137.475 98.1802 136.693 98.3082 136.866 98.8824C137.019 99.336 137.07 99.8179 137.016 100.294C136.953 100.669 136.367 101.093 136.457 101.327C136.655 101.849 136.68 102.137 136.151 102.403C136.053 102.452 136.043 102.728 136.039 102.9C136.008 104.173 136.009 104.172 134.678 104.502L135.466 105.036C135.01 105.106 134.55 105.145 134.089 105.152C133.591 105.109 133.098 105.028 132.613 104.908C132.116 104.745 131.586 104.705 131.07 104.791L132.823 105.456L132.779 105.651C132.449 105.614 132.121 105.561 131.796 105.491C130.172 105.067 128.568 104.555 126.928 104.214C125.522 103.98 124.239 103.271 123.294 102.204C123.665 101.98 124.178 101.811 123.572 101.28C122.909 100.7 123.129 100.114 123.687 99.4287C122.892 99.0767 121.93 98.7567 122.611 97.4669L124.68 98.0217L124.809 97.7612L122.839 96.5269C123.416 96.0219 123.984 95.6346 124.826 95.9672C125.062 96.0593 125.403 95.8474 125.698 95.8292C126.981 95.7498 126.982 95.7593 127.273 94.7863C127.329 94.6004 127.373 94.4124 127.423 94.225L127.561 93.7121C128.162 93.3649 128.733 93.0602 129.278 92.7155C130.407 92.0865 131.727 91.8918 132.99 92.1679C133.629 92.2564 134.231 92.5597 134.868 92.6375C135.475 92.7666 136.01 93.1237 136.361 93.6351C137.142 94.4999 137.08 94.8407 136.169 95.931" fill="#E5F1F3"/>
<path d="M92.0291 201.261C91.7004 200.316 91.362 199.4 91.0875 198.466C91.0609 198.376 91.4178 198.173 91.7092 197.928C91.4424 197.7 91.1931 197.453 90.9634 197.187C90.7493 196.864 90.552 196.53 90.3722 196.187C89.9697 195.514 89.5006 194.842 90.5365 194.284C90.6153 194.241 90.6012 194.043 90.6476 193.924C90.9791 193.074 90.9829 192.179 91.9224 191.487C92.6354 190.823 93.3932 190.209 94.1906 189.65C94.9854 189.148 95.8479 188.762 96.752 188.504C98.1515 188.017 99.6739 188.013 101.076 188.492C101.469 188.741 101.831 189.036 102.154 189.372L100.89 190.275C101.821 190.852 103.014 191.105 103.655 192.282L102.469 193.219L103.833 193.584C103.844 194.841 103.709 196.094 103.431 197.319C103.244 197.971 102.828 198.534 102.26 198.904C101.605 199.421 100.893 199.86 100.138 200.213C99.3846 200.466 98.6948 200.904 97.9142 201.17C96.6312 201.467 95.326 201.66 94.0117 201.745C93.3255 201.715 92.6518 201.551 92.0291 201.261Z" fill="#E5F1F3"/>
<path d="M77.4816 112.273L73.4591 111.194C74.3793 111.743 75.3839 112.135 76.4321 112.356C76.8416 112.474 77.4044 112.418 77.5153 112.985C77.658 113.564 77.7108 114.162 77.6718 114.757C77.648 114.958 77.0991 115.198 76.7732 115.227C76.3873 115.196 76.0089 115.102 75.6525 114.951C75.6986 115.297 75.7998 115.521 75.7371 115.682C75.6068 116.013 75.1638 116.399 75.2454 116.608C75.7011 117.774 74.9445 118.715 74.7306 119.737C74.6619 119.999 74.5349 120.242 74.3592 120.448C74.1835 120.654 73.9636 120.818 73.7158 120.927C72.6611 121.219 72.0928 122.226 70.8695 122.506C70.2797 122.342 69.6516 122.383 69.0883 122.623C68.5952 122.878 68.0534 123.025 67.4989 123.055C66.9445 123.085 66.39 122.997 65.8724 122.796C65.2957 122.587 64.7039 122.423 64.102 122.305C63.6863 120.823 63.3069 119.296 62.8242 117.802C62.3209 116.238 63.2249 115.18 64.1233 114.204C64.78 113.493 65.2809 112.435 66.5138 112.463C67.8439 110.839 69.8835 111.033 71.6226 110.44C72.7499 110.202 73.9154 110.21 75.0392 110.464C75.9474 110.541 76.7876 111.424 77.6579 111.947L77.4816 112.273Z" fill="#E5F1F3"/>
<path d="M47.4765 143.102L50.7313 141.224C51.4371 141.373 52.1316 141.571 52.8101 141.816C53.0678 141.925 53.2354 142.385 53.3157 142.715C53.3473 142.841 53.0189 143.05 52.8499 143.228C53.3159 143.645 54.0025 144 53.5779 144.873C53.4806 145.036 53.4478 145.23 53.4859 145.417C53.651 145.665 53.7531 145.949 53.7833 146.246C53.8135 146.542 53.771 146.841 53.6594 147.118C53.2024 148.162 52.5179 149.09 51.656 149.836C49.8522 151.183 47.7508 152.075 45.5293 152.439C44.164 152.617 42.7847 152.663 41.4105 152.577C41.0578 152.552 40.7194 152.427 40.4342 152.218C40.149 152.009 39.9286 151.724 39.7984 151.395C39.3376 150.132 38.8072 148.89 38.3898 147.612C38.2373 147.15 38.2322 146.652 38.3752 146.187C38.7378 144.888 39.5404 143.755 40.6456 142.982C41.7509 142.209 43.0903 141.844 44.435 141.949C44.9073 141.869 45.3902 141.875 45.8604 141.966C46.4388 142.285 46.9806 142.667 47.4763 143.103" fill="#E5F1F3"/>
<path d="M75.8271 79.5929C76.0717 79.0609 76.4843 78.6239 77.0015 78.3493C77.5187 78.0747 78.1118 77.9777 78.6896 78.0731C79.9398 78.0929 81.1838 78.2551 82.3973 78.5568C83.9838 79.1112 85.6098 79.5451 87.2617 79.8548C88.0597 80.0066 88.5046 80.6643 89.2399 80.849C89.4331 80.9008 89.7281 81.2605 89.6879 81.3833C89.3738 82.3346 90.2965 83.0717 90.0309 84.0856C89.8543 84.7559 90.3035 85.5908 90.4949 86.4487C89.5553 86.9909 90.0482 88.814 88.2541 88.9749C87.2119 88.2741 85.9407 88.9832 84.676 89.0003C84.4994 89.0026 84.3064 89.1352 84.1514 89.0957C82.2954 88.6146 80.4451 88.1123 78.433 87.5729L79.302 87.0003C78.8414 86.9803 78.5071 86.8752 78.3593 86.994C78.2115 87.1128 78.241 87.4893 78.1056 87.6932C78.0446 87.7856 77.7613 87.7686 77.5923 87.7347C77.5144 87.72 77.3909 87.5088 77.4195 87.4523C77.6301 87.0221 77.8736 86.608 78.1267 86.1509L76.3079 84.635L76.6929 83.5351C76.0107 83.9248 75.9822 83.2586 75.7111 82.9488C75.4268 82.6507 75.1275 82.3672 74.8143 82.0995C75.2581 80.9542 76.1362 80.7185 77.2276 80.6757L75.8258 79.5978" fill="#E5F1F3"/>
<path d="M30.1572 205.509L30.2707 204.314L29.2867 204.543L27.2574 201.028C27.3198 200.859 27.3665 200.685 27.3967 200.508C27.5739 198.302 29.1395 197.221 30.8918 196.44C32.2728 195.819 33.7282 195.379 35.2218 195.131C36.1851 194.868 37.2118 194.971 38.1033 195.421L33.7331 196.154L33.7484 196.483C33.9961 196.524 34.2473 196.539 34.4982 196.529C35.5051 196.392 36.5031 196.195 37.5121 196.082C37.9583 196.032 38.5521 195.825 38.5069 196.743C38.4931 197.026 39.0279 197.337 39.3142 197.633C39.5657 197.892 39.8227 198.146 40.0261 198.353C39.8714 199.25 39.103 199.054 38.6408 199.515L40.3525 199.522L40.8929 200.77C40.5947 200.943 40.136 201.156 40.7487 201.632C41.4098 202.148 41.5754 202.692 40.8844 203.312C40.8216 203.368 40.7488 203.501 40.7743 203.556C41.2603 204.625 40.4016 204.946 39.7444 205.204C38.1411 205.696 36.4794 205.971 34.8033 206.023C34.4132 206.064 33.5049 206.138 33.7316 205.131C33.7466 205.075 33.4455 204.95 33.2885 204.852C33.1825 205.047 32.9367 205.322 32.9947 205.423C33.0632 205.5 33.1036 205.598 33.1092 205.701C33.1148 205.804 33.0853 205.906 33.0255 205.99C32.9657 206.074 32.8791 206.136 32.7799 206.164C32.6808 206.193 32.5748 206.187 32.4795 206.147C31.7804 205.599 30.8085 206.173 30.1529 205.506" fill="#E5F1F3"/>
<path d="M115.267 159.052L114.803 160.781C114.624 161.45 114.541 162.203 113.533 162.097C113.451 162.115 113.375 162.154 113.313 162.21C113.25 162.266 113.203 162.336 113.175 162.416C113.081 163.239 112.277 163.243 111.818 163.64C110.573 164.713 109.049 164.512 107.6 164.479C106.777 164.459 106.284 164.058 105.993 163.033C105.665 161.883 105.625 160.542 104.734 159.574C104.884 158.97 104.076 158.226 105.016 157.726C105.161 157.613 105.258 157.45 105.291 157.27C105.88 154.893 107.634 153.778 109.778 153.025C110.813 152.513 111.939 152.211 113.092 152.135C113.584 152.162 114.073 152.224 114.557 152.321C114.715 152.352 114.959 152.516 114.969 152.638C115.054 153.677 115.68 154.589 115.764 155.599C115.865 156.773 115.695 157.954 115.267 159.052Z" fill="#E5F1F3"/>
<path d="M25.1538 131.67L23.5557 132.173C24.1851 132.436 24.3992 132.53 24.6166 132.615C25.3377 132.895 25.3372 132.893 25.1811 133.858C25.1621 133.979 25.1011 134.156 25.1528 134.215C25.406 134.467 25.5632 134.8 25.5971 135.155C25.6311 135.511 25.5396 135.868 25.3385 136.163C24.9344 136.899 24.3885 137.548 23.7324 138.072C21.1399 139.725 18.1649 140.68 15.095 140.847C14.536 140.803 13.9884 140.666 13.4751 140.44L13.7472 139.746C13.0583 139.612 12.6044 139.327 12.6568 138.499C12.6433 138.344 12.5924 138.194 12.5084 138.064C12.4244 137.933 12.3098 137.825 12.1746 137.748C11.3863 137.452 12.0035 136.726 11.66 136.323C12.5214 136.057 11.8412 135.025 12.5095 134.641C13.1476 134.277 13.72 133.699 14.4005 133.528C15.8951 133.112 17.43 132.859 18.9788 132.773C19.3158 132.788 19.6524 132.735 19.9685 132.617C20.2847 132.499 20.574 132.319 20.8192 132.088C21.5481 131.32 22.5013 130.802 23.5422 130.609C24.4451 130.455 24.4418 130.436 25.1538 131.67Z" fill="#E5F1F3"/>
<path d="M37.5359 172.644C37.7676 172.679 37.9935 172.746 38.208 172.84C38.3526 172.923 38.3867 173.216 38.5299 173.281C38.6732 173.345 38.9215 173.211 39.1021 173.259C39.2596 173.301 39.3937 173.573 39.5213 173.561C39.7682 173.524 40.0015 173.425 40.1991 173.273C40.3353 173.117 40.4439 172.939 40.5203 172.747C40.0832 172.755 39.7306 172.761 39.3756 172.768C39.9581 172.21 40.4779 171.557 41.3629 172.145L40.7524 172.92C41.8897 173.34 41.5758 172.093 42.2415 171.823C42.0051 172.415 42.3169 172.936 42.0708 173.529C41.9554 173.809 42.463 174.337 42.76 174.886L40.5015 176.513L41.6725 177.042L41.4661 179.94C40.7251 180.259 40.0673 180.48 39.465 180.808C38.9434 181.092 38.5213 181.562 37.993 181.829C36.4932 182.474 34.8675 182.774 33.2363 182.706C32.6567 182.72 31.7607 182.667 31.8918 181.603C30.9065 181.339 31.0361 180.264 30.5377 179.629C30.2474 179.191 30.1161 178.667 30.1658 178.144C30.2156 177.621 30.4433 177.131 30.8109 176.756C31.971 175.417 33.45 174.391 35.1111 173.774C35.8946 173.409 36.6599 172.968 37.5349 172.643" fill="#E5F1F3"/>
<path d="M4.9464 197.016L4.38136 197.861C5.93974 198.351 6.81885 196.841 8.33064 197.003C8.16558 197.256 7.97275 197.489 7.75575 197.699C7.36636 197.957 6.96394 198.195 6.55007 198.411C7.12897 198.525 7.72955 198.429 8.24413 198.14C9.1743 199.452 9.1743 199.452 8.8635 200.611C7.89687 200.955 6.98436 201.435 6.15373 202.037C5.35753 202.793 4.34227 202.807 3.48717 203.289C2.61605 203.71 1.6868 203.998 0.730302 204.144C0.203015 204.285 -0.354081 204.268 -0.871451 204.094C-1.44834 203.836 -2.26526 203.341 -2.32203 202.869C-2.41606 202.092 -2.95384 202.117 -3.3215 201.781C-3.60462 201.573 -3.83256 201.298 -3.98552 200.982C-4.13848 200.665 -4.21183 200.316 -4.19919 199.965C-4.15276 199.502 -4.34945 198.884 -4.1163 198.597C-3.56432 197.871 -2.8777 197.257 -2.09386 196.789C-0.607774 196.016 0.926685 195.339 2.49994 194.763C2.8908 194.619 3.43798 194.883 4.107 194.987L3.34993 195.54C4.34304 195.659 4.44648 196.583 4.94737 197.016" fill="#E5F1F3"/>
<path d="M67.6587 189.463C67.4435 190.096 67.6564 190.631 67.074 191.107L67.0162 190.284C66.2053 190.304 65.3936 190.35 64.5829 190.326C64.3773 190.321 64.0184 190.115 63.9972 189.962C63.8805 189.131 63.1322 188.681 62.8439 187.977C62.7424 187.63 62.7307 187.263 62.8098 186.91C62.837 186.735 63.1466 186.604 63.1748 186.429C63.1642 186.187 63.1094 185.95 63.013 185.727C64.2363 185.711 64.2773 185.739 65.0486 184.589C65.5108 183.9 66.2978 183.942 66.9093 183.534L66.226 182.959C66.4777 182.819 66.7434 182.546 66.9221 182.594C69.1529 183.203 69.2037 183.214 70.8148 182.554C69.9595 181.709 69.0798 182.653 68.0765 182.448C68.192 182.187 68.2684 181.775 68.399 181.755C69.691 181.59 70.9887 181.156 72.1819 182.279C72.5535 182.627 72.7691 182.73 72.6389 183.254C72.5867 183.61 72.6276 183.974 72.7578 184.309C73.0284 185.177 73.3475 186.03 73.6756 186.969L73.1309 187.158C72.5264 187.667 73.5269 188.635 72.277 188.412C71.9212 188.349 72.5435 189.349 71.6315 189.105C71.2799 189.01 70.7541 189.562 70.3412 189.8L69.5507 189.223L69.2832 189.448L70.1502 190.25C69.4916 190.432 69.1099 190.539 68.6097 190.678L67.6587 189.463Z" fill="#E5F1F3"/>
<path d="M28.5642 111.45L30.3319 110.689L29.4829 109.95C30.0012 109.38 30.6614 108.958 31.3962 108.727C32.9274 108.16 34.5368 107.835 36.0745 107.255C36.5601 107.106 37.0718 107.063 37.5754 107.129C38.079 107.194 38.5628 107.366 38.9946 107.633C38.9385 108.533 37.8851 108.45 37.4402 109.094L39.265 109.583L38.7778 113.559C37.4446 114.443 35.9254 115.008 34.3383 115.21C33.4535 115.328 32.6743 115.855 31.7035 115.818C31.3212 115.804 30.961 115.212 30.5389 115.713C30.4027 115.622 30.2714 115.525 30.1453 115.42C30.7282 114.582 29.4664 113.909 29.9221 113.074C29.9522 113.02 29.6495 112.77 29.484 112.63C29.2869 112.497 29.0978 112.353 28.9179 112.197C28.7716 111.964 28.6525 111.715 28.5629 111.455" fill="#E5F1F3"/>
<path d="M1.65592 91.5542L0.0985294 92.0913C0.335143 92.2438 0.472735 92.3988 0.618762 92.4141C1.32915 92.4679 2.04307 92.4853 2.8536 92.5132L2.56145 93.6028L1.53319 93.7962L3.0643 94.2067C3.05713 94.3993 3.07506 94.5921 3.11764 94.7801C3.25632 95.1279 3.62421 95.7215 3.57288 95.7585C3.053 96.1296 3.13246 96.7794 2.83136 97.1957C2.64611 97.5384 2.35471 97.8117 2.00091 97.9747C1.6471 98.1376 1.24998 98.1815 0.869152 98.0995C0.6064 98.0291 0.408685 97.6002 0.176383 97.5938C-0.0146886 97.5882 -0.183277 98.0586 -0.424728 98.1482C-0.548645 98.1789 -0.67827 98.1782 -0.801849 98.1461C-0.925429 98.1141 -1.03906 98.0517 -1.13243 97.9646C-1.38933 97.378 -1.92059 97.3474 -2.39887 97.2544C-2.65257 97.2332 -2.88797 97.1138 -3.05499 96.9217C-3.222 96.7295 -3.30743 96.4798 -3.29309 96.2256C-3.30233 95.6267 -3.62382 95.4008 -4.12475 95.1412C-4.47567 94.9921 -4.75523 94.7129 -4.90482 94.3622C-5.05441 94.0115 -5.06239 93.6165 -4.92711 93.26C-4.82669 92.9615 -4.76445 92.6515 -4.74187 92.3374C-4.70543 91.5488 -4.27401 90.6581 -3.66658 90.5745C-2.18094 90.3629 -0.70113 89.8796 0.827698 90.4531C1.42312 90.6769 1.49832 91.0916 1.65592 91.5542Z" fill="#E5F1F3"/>
<path d="M19.2603 160.703L18.3906 162.132C18.6168 162.364 18.9137 162.516 19.2349 162.562C19.5561 162.608 19.8836 162.547 20.1662 162.387C20.5871 163.204 19.5695 163.4 19.4943 164.071C19.8069 164.218 20.1325 164.374 20.4503 164.529C20.8551 165.178 19.7372 165.366 20.0433 166.101C20.3493 166.837 19.2766 166.732 19.0156 167.231C18.8016 167.518 18.5056 167.733 18.1667 167.848C17.1143 168.321 15.864 168.103 14.8562 168.849C14.6156 169.028 14.0288 168.741 13.4618 168.643C14.2594 167.731 12.6092 167.22 13.2752 166.315C12.8544 165.869 11.8628 165.918 12.0597 164.747L13.1983 164.432L12.3747 163.726C12.394 163.048 13.0231 162.903 13.429 162.787C14.7478 162.42 15.9511 161.723 16.9253 160.761C17.0698 160.596 17.247 160.462 17.4458 160.369C17.6445 160.276 17.8605 160.225 18.08 160.219C18.2995 160.214 18.5177 160.254 18.7209 160.337C18.9241 160.42 19.1078 160.545 19.2603 160.703Z" fill="#E5F1F3"/>
<path d="M71.5055 164.935L70.2782 162.056L70.7003 160.482C71.7514 160.106 72.9706 160.22 73.9452 159.512C75.2027 159.749 76.1986 159.1 77.2568 158.594C77.5956 158.427 78.1035 158.614 78.6394 158.654C78.6422 158.945 78.5644 159.212 78.659 159.384C79.6181 161.186 78.4972 162.343 77.2696 163.238C76.1865 163.993 74.9929 164.576 73.7313 164.966C72.9927 165.084 72.2394 165.074 71.5045 164.935" fill="#E5F1F3"/>
</g>
<defs>
<clipPath id="clip0_3931_1249">
<rect width="192" height="196" fill="white" transform="translate(0 0.125)"/>
</clipPath>
</defs>
</svg>
