<svg width="25" height="18" viewBox="0 0 25 18" fill="none" xmlns="http://www.w3.org/2000/svg">
<g clip-path="url(#clip0_3931_1356)">
<path d="M6.60593 2.5H4V0.5H8.39407L8.84288 4.5H20V10.4384L7.76941 12.8694L6.60593 2.5ZM19.5 17.5C18.6716 17.5 18 16.8284 18 16C18 15.1716 18.6716 14.5 19.5 14.5C20.3284 14.5 21 15.1716 21 16C21 16.8284 20.3284 17.5 19.5 17.5ZM9.5 17.5C8.67157 17.5 8 16.8284 8 16C8 15.1716 8.67157 14.5 9.5 14.5C10.3284 14.5 11 15.1716 11 16C11 16.8284 10.3284 17.5 9.5 17.5Z" fill="white"/>
</g>
<defs>
<clipPath id="clip0_3931_1356">
<rect width="25" height="17" fill="white" transform="translate(0 0.5)"/>
</clipPath>
</defs>
</svg>
